<?xml version="1.0" encoding="UTF-8"?>
<svg id="Layer_2" data-name="Layer 2" xmlns="http://www.w3.org/2000/svg" viewBox="0 0 74.45 47.94">
  <g id="Layer_1-2" data-name="Layer 1">
    <g>
      <path d="M61.27,17.8c0-1.5,0-3,0-4.51.01-2.82.03-5.65.05-8.47,0-.77.43-1.22,1.15-1.21.72,0,1.12.44,1.1,1.23-.08,3.12-.18,6.24-.27,9.36-.02.63.28.92.87.74.21-.07.46-.44.47-.68.11-2.22.18-4.45.25-6.67.04-1.25.08-2.5.12-3.75.03-.75.42-1.11,1.18-1.09.76.02,1.12.39,1.1,1.16-.11,3.44-.23,6.87-.34,10.31-.01.34,0,.68-.03,1.01-.03.46.18.64.63.66.43.01.74-.05.76-.58.05-1.75.12-3.5.18-5.24.05-1.43.13-2.86.15-4.29.01-1.06,1.23-1.35,1.82-.85.26.22.45.67.44,1.01-.08,3.42-.2,6.83-.31,10.25-.02.71.06.78.77.79.45,0,.58-.21.6-.62.07-2.32.16-4.65.24-6.97.03-.94.66-1.41,1.56-1.13.44.14.73.42.71.91-.18,5.52-.17,11.05-1.7,16.42-.35,1.24-.85,2.43-1.18,3.67-.18.68-.23,1.41-.24,2.12-.02,5.13,0,10.26-.01,15.39,0,.85-.11.95-.96.95-2.47,0-4.93,0-7.4,0-.9,0-.96-.06-.96-.94,0-4.02-.07-8.03.02-12.05.07-3.06-.35-5.95-1.46-8.84-1.48-3.84-2.64-7.81-3.92-11.73-.13-.41-.22-.85-.21-1.28,0-.28.15-.69.35-.79.25-.12.65-.03.94.09.21.09.37.35.49.57.96,1.69,1.91,3.39,2.87,5.08.07,0,.13-.02.2-.02Z"/>
      <path d="M50.73,17.81c0-2.1,0-4.21,0-6.31.01-2.23.04-4.45.07-6.68,0-.78.43-1.23,1.15-1.2.63.03,1.16.46,1.12,1.24-.14,3.1-.22,6.2-.33,9.29-.01.37-.03.71.49.79.69.1.89-.06.92-.85.12-3.42.23-6.83.35-10.25.03-.94.92-1.46,1.72-.96.27.17.54.59.53.89-.02,2.05-.11,4.09-.2,6.14,0,.15-.1.36-.22.43-1.58.94-2.06,1.94-1.5,3.78,1.01,3.32,2.11,6.61,3.2,9.9.53,1.58,1.17,3.12,1.67,4.71.28.88.5,1.82.51,2.73.05,5.39.03,10.77.03,16.16,0,.02-.02.03-.06.11h-.55c-2.41,0-4.81,0-7.22,0-.88,0-.98-.1-.98-1,0-4.99,0-9.98,0-14.97,0-1.31-.26-2.55-.68-3.79-1.58-4.61-3.13-9.23-4.69-13.85-.09-.28-.14-.58-.18-.87-.07-.48-.11-.98.45-1.22.42-.18,1,.14,1.31.68.58,1.04,1.16,2.08,1.75,3.12.39.69.78,1.37,1.17,2.05.05-.01.11-.03.16-.04Z"/>
      <path d="M40.19,17.81c0-.51,0-1.02,0-1.53.01-3.8.02-7.59.04-11.39,0-.9.59-1.41,1.4-1.25.63.13.88.45.86,1.14-.09,3.14-.18,6.28-.28,9.42-.01.4.03.69.53.75.61.06.81-.05.83-.67.12-3.2.22-6.39.33-9.59.01-.32,0-.64.04-.95.08-.69.5-1.02,1.24-.99.67.03,1.09.43,1.08,1.09-.06,2.05-.14,4.09-.23,6.14,0,.14-.14.35-.26.38-1.23.36-1.96,1.76-1.56,3.28.63,2.37,1.36,4.72,2.14,7.05.91,2.73,1.95,5.41,2.86,8.14.29.87.49,1.82.5,2.73.05,5.29.03,10.57.03,15.86,0,.08-.01.15-.02.26-.16.01-.32.04-.47.04-2.48,0-4.97,0-7.45,0-.73,0-.86-.13-.86-.87,0-4.79-.02-9.58.01-14.37.01-1.88-.4-3.62-1.04-5.39-1.49-4.16-2.83-8.37-4.22-12.57-.14-.41-.25-.84-.33-1.26-.12-.66.08-1.14.49-1.27.42-.13.98.17,1.26.68.63,1.11,1.25,2.21,1.87,3.32.35.62.7,1.24,1.05,1.85.06-.01.11-.02.17-.04Z"/>
      <path d="M13.36,24.62c-.01.9-.46,1.49-1.05,1.98-1.06.87-2.32,1.27-3.65,1.5-2.04.35-4.05.23-5.97-.57-.75-.31-1.43-.84-2.07-1.35-.43-.35-.67-.87-.63-1.54h1.99c.52-2.05,1.02-4.04,1.52-6.04.68-2.67,1.34-5.35,2.04-8.01.11-.41.04-.66-.31-.9-.37-.26-.72-.57-1.06-.87-.39-.35-.38-.64.02-.98.75-.63,1.49-1.25,2.26-1.85.18-.14.49-.23.68-.17.14.05.22.37.28.58.05.16.03.34.04.47.81-.22,1.57-.52,2.36-.63,1.46-.2,2.8.26,4.01,1.03,1.03.67,2.01,1.42,3.01,2.13.81.58,1.64,1.12,2.7,1.33.02-.19.05-.36.05-.53,0-1.53,0-3.06.01-4.59,0-.36-.11-.56-.42-.75-.87-.55-1.09-1.36-.59-2.25.43-.78.92-1.53,1.41-2.28.3-.45.57-.45.87,0,.49.74.98,1.5,1.41,2.27.5.88.28,1.72-.59,2.25-.34.21-.44.43-.43.81.02,1.67,0,3.33,0,5.17.66-.29,1.25-.47,1.74-.79.89-.57,1.69-1.26,2.58-1.82.97-.61,1.95-1.23,3-1.68,1.41-.6,2.87-.47,4.27.17.16.07.32.14.53.24.01-.23,0-.41.04-.57.07-.21.14-.51.3-.58.16-.08.47.02.63.14.8.62,1.57,1.28,2.35,1.92.35.29.36.61.02.9-.8.68-1.61,1.36-2.43,2.01-.4.32-.78.15-.87-.35-.02-.12-.04-.24-.01-.36.23-.96-.35-1.38-1.1-1.75-1.23-.6-2.48-.66-3.66-.02-1.04.56-2.03,1.25-2.98,1.95-1.34.98-2.68,1.91-4.42,2.2v.66c0,4.51,0,9.02,0,13.54,0,.43.12.66.5.88,1.22.7,1.54,2.31.73,3.47-.11.16-.24.31-.37.47,1.33,1.46,1.62,3.11,1.01,4.93-.05.15-.12.3-.18.44-.31.65-.7,1.1-1.55.98-.72-.1-1.47-.06-2.2,0-.49.03-.77-.18-1.02-.55-1.06-1.59-.96-3.91.26-5.41.1-.12.21-.24.33-.39-.54-.6-.89-1.26-.81-2.09.08-.86.53-1.46,1.23-1.94.19-.13.39-.41.39-.62.02-4.65.02-9.3.02-13.95,0-.14-.02-.27-.04-.44-1.83-.3-3.25-1.34-4.65-2.42-1.13-.88-2.27-1.75-3.71-2.07-1.35-.3-2.51.16-3.55.96-.13.1-.16.43-.11.62,1.11,4.36,2.24,8.72,3.36,13.07.13.5.31.99.38,1.5.06.46.29.53.68.51.45-.03.9,0,1.4,0ZM6.76,13.21c-.05,0-.1,0-.15-.01-.94,3.71-1.88,7.43-2.82,11.15q-.36-.25-.76.23h7.35s.03-.1.04-.14c-.24-.1-.47-.19-.86-.35-.9-3.48-1.85-7.17-2.8-10.87Z"/>
      <path d="M21.53,44.4c3.83,0,7.67,0,11.5,0,.72,0,1.28.29,1.57.96.3.68.26,1.36-.22,1.96-.41.52-.98.62-1.6.62-3.87,0-7.75,0-11.62,0-3.67,0-7.35,0-11.02,0-1.41,0-2.22-1.1-1.8-2.39.24-.73.83-1.14,1.69-1.14,3.83,0,7.67,0,11.5,0Z"/>
      <path d="M21.59,39.38c2.58,0,5.17.01,7.75,0,.68,0,1.27.17,1.5.83.27.76.36,1.62-.27,2.23-.3.29-.85.42-1.29.42-3.74.03-7.48.02-11.21.02-1.47,0-2.94,0-4.41,0-.67,0-1.21-.19-1.5-.85-.28-.65-.17-1.89.31-2.24.31-.23.75-.39,1.13-.39,2.66-.03,5.33-.02,7.99-.02Z"/>
      <path d="M31.4,24.13c-.37.13-.61.21-.85.29.01.06.02.11.03.17h6.57c.35,1.01.69,1.96,1.08,3.08-1.03.19-2,.45-2.99.55-2.01.21-3.98-.05-5.77-1.04-.6-.33-1.12-.87-1.59-1.4-.23-.26-.27-.7-.43-1.14h2.09c.38-1.48.74-2.93,1.11-4.38.48-1.92.96-3.84,1.45-5.76.16-.63.56-.93,1.04-.81.53.13.75.57.58,1.23-.79,3.13-1.59,6.26-2.34,9.22Z"/>
      <path d="M48.99,4.78v6.55c-.48-.31-.95-.6-1.4-.93-.11-.08-.16-.29-.16-.44.04-1.39.11-2.77.16-4.16.03-.84.52-1.21,1.4-1.03Z"/>
      <path d="M59.5,11.31c-.45-.29-.85-.53-1.23-.82-.14-.11-.3-.32-.3-.48.02-1.45.05-2.9.15-4.34.02-.3.32-.68.6-.84.57-.33.82-.14.82.51,0,1.87-.02,3.73-.03,5.6,0,.13-.01.26-.02.38Z"/>
    </g>
  </g>
</svg>