<?xml version="1.0" encoding="UTF-8"?>
<svg id="Layer_2" data-name="Layer 2" xmlns="http://www.w3.org/2000/svg" viewBox="0 0 62.49 62.48">
  <g id="Layer_1-2" data-name="Layer 1">
    <g>
      <path d="M31.22,45.18c-1.96,0-3.92,0-5.88,0-1.75,0-2.83-1.08-2.84-2.85,0-2-.05-4,.01-6,.1-3.39,1.69-5.92,4.6-7.64.34-.2.61-.21.98-.01,2.11,1.13,4.24,1.12,6.33-.03.35-.19.6-.18.93,0,3,1.7,4.57,4.28,4.67,7.72.06,1.98.03,3.96,0,5.94-.02,1.81-1.09,2.86-2.89,2.87-1.98,0-3.96,0-5.94,0Z"/>
      <path d="M36.95,23.03c0,3.16-2.53,5.69-5.7,5.7-3.19.01-5.71-2.52-5.72-5.75,0-3.11,2.54-5.67,5.67-5.67,3.21,0,5.75,2.51,5.75,5.72Z"/>
      <path d="M18.38,42.74c-.88,0-1.77.01-2.65,0-1.16-.02-1.94-.8-1.95-1.95-.01-1.54-.04-3.07,0-4.61.08-2.44,1.2-4.29,3.29-5.56.29-.18.53-.21.86-.03,1.52.79,3.07.77,4.61.01.11-.06.22-.14.34-.17.25-.06.46.08.61.24.17.17-.04.31-.12.44-1.19,1.8-1.69,3.77-1.64,5.92.04,1.7,0,3.41.02,5.11,0,.46-.11.63-.59.61-.92-.04-1.85-.01-2.78-.01h0Z"/>
      <path d="M40.81,38.98c-.04-1.36.1-2.84-.17-4.3-.23-1.28-.72-2.46-1.43-3.55-.09-.15-.4-.29-.13-.52.21-.19.44-.26.74-.09,1.32.75,2.78.97,4.12.29,1.14-.57,1.8-.08,2.53.58,1.48,1.33,2.21,2.99,2.22,4.97,0,1.45,0,2.91,0,4.36,0,1.23-.78,2.01-2.01,2.02-1.77,0-3.54-.01-5.31.01-.44,0-.58-.13-.57-.57.03-1.03,0-2.06,0-3.21Z"/>
      <path d="M28.29,55.73q0,1.39-1.38,1.15c-10.98-1.92-19.43-10.37-21.31-21.31q-.24-1.38,1.15-1.38t1.5,1.22c1.85,9.8,9.43,17.23,19.24,18.88.9.15.78-.19.79,1.43Z"/>
      <path d="M34.19,6.74q0-1.37,1.4-1.13c11.24,1.96,19.78,10.77,21.41,22.07.07.49-.06.65-.54.61-.65-.04-1.43.18-1.91-.11-.47-.29-.32-1.15-.45-1.76-1.97-9.38-9.61-16.67-19.08-18.23-1-.16-.8.17-.82-1.46Z"/>
      <path d="M55.74,34.19q1.36,0,1.14,1.33c-1.76,11-10.71,19.79-21.78,21.41-.17.02-.33.06-.5.09-.29.05-.43-.06-.42-.37.01-.48.04-.97-.01-1.45-.06-.59.12-.84.75-.92,2.42-.32,4.72-1.08,6.87-2.22,6.88-3.67,11.07-9.34,12.48-17.03.18-.98-.18-.81,1.46-.83Z"/>
      <path d="M28.29,6.78q0,1.26-1.25,1.48c-9.63,1.73-17.25,9.49-18.83,19.2-.1.64-.3.93-.98.84-.41-.06-.84-.03-1.26,0-.48.03-.56-.17-.5-.6,1.17-7.61,4.9-13.62,11.23-17.99,3.27-2.26,6.92-3.61,10.86-4.2.62-.09.81.06.74.65-.03.21,0,.42,0,.63Z"/>
      <path d="M24.42,26.2c0,2.35-1.85,4.21-4.2,4.2-2.32,0-4.18-1.86-4.17-4.17,0-2.32,1.84-4.2,4.14-4.21,2.34-.02,4.23,1.85,4.24,4.18Z"/>
      <path d="M46.43,26.21c0,2.34-1.87,4.21-4.21,4.2-2.3,0-4.17-1.88-4.16-4.18,0-2.31,1.86-4.19,4.15-4.21,2.34-.01,4.22,1.85,4.22,4.19Z"/>
      <path d="M29.93,6.52c0-1.7-.01-3.41,0-5.11.01-.95.7-1.54,1.55-1.38.61.11,1.06.61,1.06,1.31.01,3.51.01,7.03-.01,10.54,0,.78-.61,1.3-1.35,1.28-.71-.03-1.23-.55-1.24-1.33-.02-1.77,0-3.53,0-5.3,0,0,0,0,0,0Z"/>
      <path d="M29.93,55.91c0-1.68,0-3.37,0-5.05,0-.95.51-1.53,1.31-1.52.78,0,1.3.55,1.31,1.46.01,3.43.01,6.86,0,10.29,0,.85-.55,1.4-1.31,1.39-.77,0-1.29-.53-1.29-1.4-.02-1.73,0-3.45,0-5.18Z"/>
      <path d="M6.56,32.55c-1.68,0-3.37,0-5.05,0-.94,0-1.52-.5-1.51-1.31,0-.77.57-1.29,1.47-1.3,3.41,0,6.82,0,10.23,0,.89,0,1.46.55,1.45,1.32-.01.79-.57,1.29-1.48,1.29-1.7,0-3.41,0-5.11,0Z"/>
      <path d="M55.89,29.94c1.75,0,3.49,0,5.24,0,.68,0,1.17.4,1.32.97.15.57-.1,1.15-.62,1.46-.25.15-.52.17-.79.17-3.41,0-6.82,0-10.23,0-.9,0-1.47-.52-1.48-1.29-.01-.8.56-1.32,1.51-1.32,1.68,0,3.37,0,5.05,0Z"/>
    </g>
  </g>
</svg>