<?xml version="1.0" encoding="UTF-8"?>
<svg id="Layer_2" data-name="Layer 2" xmlns="http://www.w3.org/2000/svg" viewBox="0 0 52.86 52.22">
  <g id="Layer_1-2" data-name="Layer 1">
    <g>
      <path d="M26.42,29.56c2.24,0,4.39.02,6.54,0,1.71-.02,3.64.01,4.05,1.95.28,1.3-.47,2.82-.83,4.63,2.08,2.06,1.99,3.93-.84,5.95,1.18,3.2.81,4.21-1.97,5.46.95,2.66.29,4.35-2.13,4.39-6.99.1-14.05.96-21.07-1.36,0-5.36-.02-10.73.03-16.1,0-.39.41-.96.78-1.14,6.85-3.35,9.22-9.4,9.99-16.42.23-2.09.95-2.55,2.9-1.74,1.83.76,2.96,2.23,2.98,4.13.04,2.96-.27,5.93-.43,8.9-.02.36,0,.72,0,1.36Z"/>
      <path d="M39.23,31.62c-.92-2.22-2.26-3.69-4.54-3.82-2-.11-4.01-.02-6.24-.02.2-1.87.37-3.4.57-5.28,3.16,2.49,6.43,3.54,10.1,2.16,2.43-.91,4.16-2.62,5.19-5,2.04-4.66-.25-10.2-5-12.11-5.37-2.16-10.34.52-12.55,6.49-2.29-.38-4.53-.76-7.21-1.21-.22-1.77-.52-4.19-.85-6.85,1.51-.24,2.88-.24,4.08-.7,3.94-1.53,7.81-3.24,11.74-4.84.65-.26,1.66-.62,2.09-.33,4.68,3.18,9.8,5.06,15.42,5.66.21.02.42.16.82.32-.22,10.7-4.53,19.22-13.63,25.54Z"/>
      <path d="M8.33,42.53c0,2.39-.06,4.78.02,7.17.06,1.75-.41,2.59-2.39,2.52C-.96,52,.1,53.29.02,46.32c-.04-3.81.04-7.62-.02-11.43-.03-1.57.44-2.35,2.16-2.32,7.28.15,6.04-.98,6.17,5.92.03,1.34,0,2.69,0,4.03Z"/>
      <path d="M28.53,16.03c.02-4.09,3.37-7.42,7.42-7.36,4.08.05,7.29,3.41,7.22,7.54-.06,4.02-3.3,7.23-7.29,7.23-4.11,0-7.38-3.29-7.36-7.41ZM34.98,17.3c-.96-.84-1.52-1.45-2.21-1.87-.27-.17-.86-.01-1.18.2-.15.1-.12.71.01.99,1.24,2.64,3.19,3.01,5.19,1.01.95-.95,1.96-1.85,2.82-2.88.34-.41.32-1.11.46-1.68-.56.13-1.3.07-1.65.42-1.22,1.19-2.3,2.51-3.45,3.81Z"/>
    </g>
  </g>
</svg>