<?xml version="1.0" encoding="UTF-8"?>
<svg id="Layer_2" data-name="Layer 2" xmlns="http://www.w3.org/2000/svg" viewBox="0 0 61.57 60.54">
  <g id="Layer_1-2" data-name="Layer 1">
    <g>
      <path d="M61.57,2.54c-.11.72-.2,1.45-.33,2.16-.61,3.18-1.7,6.18-3.54,8.86-2.4,3.5-5.41,6.36-9.18,8.36-1.72.91-3.55,1.48-5.54,1.35-.84-.05-.98-.26-.64-1.02,1.12-2.46,2.55-4.73,4.16-6.89,1.46-1.96,3.06-3.78,4.8-5.49.05-.05.09-.09.07-.21-.68.53-1.36,1.06-2.03,1.61-2.27,1.89-4.23,4.09-6,6.44-.85,1.13-1.62,2.33-2.41,3.51-.15.22-.27.45-.58.39-.34-.07-.4-.35-.43-.64-.31-2.71.21-5.26,1.39-7.69,1.53-3.16,3.65-5.84,6.55-7.85,1.98-1.38,4.21-2.24,6.53-2.88,2.15-.59,4.33-.96,6.55-1.11.2-.01.41.11.62.17v.93Z"/>
      <path d="M27.76,0c.81.17,1.62.31,2.42.51,1.64.41,3.23.99,4.63,1.97,1.28.89,2.3,2.02,3.17,3.3.95,1.39,1.62,2.9,1.81,4.58.08.68,0,1.37-.02,2.06,0,.11-.12.3-.2.31-.12,0-.29-.08-.37-.18-.61-.85-1.17-1.72-1.8-2.55-1.35-1.79-2.9-3.39-4.77-4.67.24.26.48.52.73.78,2,2.07,3.65,4.38,4.87,6.99.26.56.17.68-.46.7-1.7.07-3.17-.58-4.53-1.49-2.07-1.39-3.83-3.11-5.1-5.26C26.87,4.88,26.14,2.53,26.07,0,26.63,0,27.19,0,27.76,0Z"/>
      <path d="M28.94,43.99c1.03.16,2.05.39,3.08.46,1.72.12,3.46.21,5.18.17,2.32-.05,4.53-.59,6.59-1.71,2.48-1.34,4.98-2.68,7.48-3.98,1.23-.64,2.53-1.12,3.93-1.19,1.32-.07,2.56.19,3.47,1.26.66.78.66,1.82-.1,2.49-1.5,1.33-3,2.69-4.62,3.88-1.83,1.35-3.77,2.57-5.71,3.76-2.74,1.68-5.64,3.06-8.73,3.96-.96.28-1.98.41-2.99.48-2.47.18-4.94.33-7.42.41-2.7.09-5.41.06-8.11.15-.7.02-1.43.2-2.07.48-2.38,1.04-4.34,2.69-6.27,4.38-.51.44-1.01.9-1.49,1.37-.27.26-.5.24-.76,0-1.98-1.93-3.95-3.85-5.93-5.77-1.43-1.38-2.86-2.75-4.29-4.13-.06-.06-.11-.12-.19-.22.68-1,1.35-2.01,2.04-3,1.57-2.25,3.21-4.46,5.1-6.46.69-.72,1.43-1.39,2.17-2.06,1.31-1.18,2.92-1.68,4.62-1.84,2.83-.26,5.66-.48,8.5-.67,3.1-.2,6.16-.7,9.22-1.24,1.88-.33,3.76-.65,5.65-.94.59-.09,1.21-.09,1.81-.07.92.03,1.63.78,1.75,1.8.16,1.3-.27,2.42-1.07,3.4-1.15,1.42-2.65,2.32-4.4,2.82-2.05.59-4.09,1.2-6.14,1.81-.11.03-.21.07-.31.11,0,.03,0,.06,0,.1Z"/>
      <path d="M28.44,16.82c.69.73,1.39,1.46,2.06,2.2,2.63,2.92,4.86,6.12,6.55,9.69.33.71.19.93-.6.98-2.04.14-3.89-.5-5.63-1.47-3.12-1.72-5.67-4.09-7.8-6.93-1.93-2.57-3.16-5.47-3.83-8.6-.22-1.05-.35-2.13-.48-3.2-.06-.51.08-.64.59-.61,2.07.13,4.1.47,6.1,1.02,2.61.71,5.11,1.69,7.23,3.42,2.94,2.39,5.07,5.38,6.23,9,.55,1.71.73,3.47.46,5.25-.03.19-.19.45-.34.5-.15.04-.43-.11-.54-.26-.88-1.24-1.71-2.51-2.62-3.73-1.31-1.77-2.76-3.41-4.41-4.88-.86-.77-1.77-1.48-2.66-2.21-.09-.08-.2-.13-.3-.2,0,.01-.02.02-.02.03Z"/>
    </g>
  </g>
</svg>