<?xml version="1.0" encoding="UTF-8"?>
<svg id="Layer_2" data-name="Layer 2" xmlns="http://www.w3.org/2000/svg" viewBox="0 0 95.98 51.06">
  <g id="Layer_1-2" data-name="Layer 1">
    <g>
      <path d="M32.46,51.06H13.67v-11.7c-3.52,3.17-5.18,7.19-5.85,11.7H0c.45-2.11.7-4.16,1.34-6.09,3.44-10.48,10.9-16.58,21.39-19.21,3.24-.81,6.59-1.19,9.64-2.7,4.93-2.44,8.69-6.02,11.05-11.02,1.02-2.16,3.15-3.03,5.14-2.14,2.06.93,2.87,3.14,1.81,5.35-3.54,7.38-9.17,12.56-16.78,15.57-.9.36-1.17.78-1.16,1.73.05,5.67.02,11.34.02,17.01,0,.47,0,.94,0,1.5Z"/>
      <path d="M53.95,14.26c1.62,2.53,3.79,4.95,6.54,6.81.79.53,1.58,1.14,2.46,1.47,3.05,1.13,4.99,3.63,7.26,5.72,2.21,2.03,2.18,2.06,4.81.65,3.35-1.81,3.39-1.87,6.76.04,8.13,4.62,12.86,11.6,14.18,20.87.05.38,0,.78,0,1.23h-7.56c-.65-4.48-2.33-8.5-5.81-12.03v12.03h-18.82c0-.5,0-.97,0-1.43,0-5.71-.02-11.42.02-17.13,0-.91-.28-1.31-1.13-1.63-4.67-1.78-8.65-4.57-12-8.28-.61-.67-.67-1.11-.19-1.93,1.25-2.1,2.35-4.29,3.47-6.38Z"/>
      <path d="M73.14,24.06c-4.53,0-8.23-3.69-8.23-8.22,0-4.5,3.73-8.26,8.21-8.27,4.57,0,8.29,3.74,8.27,8.32-.02,4.54-3.68,8.17-8.25,8.17Z"/>
      <path d="M23.03,6.99c4.57-.01,8.25,3.61,8.27,8.16.03,4.57-3.7,8.3-8.29,8.3-4.51,0-8.2-3.71-8.2-8.25,0-4.55,3.65-8.19,8.22-8.2Z"/>
      <path d="M46.4,5.67c-.17.14-.48.57-.83.6-.29.03-.83-.36-.9-.65-.35-1.43-.6-2.88-.85-4.34-.14-.79.34-1.34,1.03-1.28.41.04,1.03.63,1.1,1.06.25,1.41.29,2.85.45,4.61Z"/>
      <path d="M55.54,11.59c-.37-.34-.71-.53-.83-.81-.09-.22-.02-.69.16-.83,1.27-1.01,2.55-2.01,3.9-2.9.26-.17.95.02,1.22.27.24.22.35,1.03.2,1.14-1.49,1.08-3.04,2.07-4.66,3.13Z"/>
      <path d="M54.28,2.84c-.29.59-.47.99-.68,1.36-.56,1.01-1.08,2.04-1.73,2.99-.2.3-.74.36-1.13.53-.16-.39-.54-.86-.43-1.16.48-1.38,1.05-2.75,1.71-4.06.17-.34.84-.65,1.23-.6.37.05.68.59,1.03.92Z"/>
      <path d="M41.51,7.36c-.15.2-.27.54-.51.67-.23.12-.67.16-.85.02-1.24-.99-2.48-2-3.61-3.11-.24-.23-.22-1.07,0-1.33.25-.29,1.12-.47,1.33-.28,1.22,1.13,2.33,2.38,3.47,3.59.07.08.09.22.17.44Z"/>
    </g>
  </g>
</svg>