<?xml version="1.0" encoding="UTF-8"?>
<svg id="Layer_2" data-name="Layer 2" xmlns="http://www.w3.org/2000/svg" viewBox="0 0 47.48 50.83">
  <g id="Layer_1-2" data-name="Layer 1">
    <g>
      <path d="M25.44,0c1.9.29,3.97.57,6.02.95,1.33.25,2.02,1.33,1.74,2.5-.27,1.16-1.38,1.75-2.7,1.43C18.55,1.99,7.11,9.17,4.48,21.21c-2.47,11.27,5.07,22.83,16.38,25.11,9.12,1.84,17.98-2.08,22.71-10.07.72-1.22,1.9-1.6,2.95-.95,1.03.63,1.26,1.83.54,3.01-4.44,7.26-10.87,11.46-19.34,12.38C14.89,52.09,2.88,43.14.48,30.48-2.15,16.67,6.3,3.78,20.02.73c1.7-.38,3.47-.48,5.42-.73Z"/>
      <path d="M25.35,25.61c.23-.29.39-.54.6-.75,3.58-3.6,7.16-7.19,10.74-10.78,1.06-1.06,1.88-1.05,2.93,0,.81.81,1.63,1.62,2.43,2.44.82.83.83,1.75,0,2.57-5.16,5.18-10.33,10.36-15.5,15.54-.86.86-1.75.85-2.62-.02-2.81-2.81-5.62-5.62-8.42-8.44-.81-.82-.81-1.76-.02-2.57.87-.89,1.75-1.77,2.64-2.64.83-.82,1.73-.81,2.57.02,1.51,1.49,3,2.99,4.64,4.63Z"/>
    </g>
  </g>
</svg>